Coordinates
version=1
nRows=8
nColumns=63
inDegrees=yes

Units are S.I. units (second, meters, Newtons, ...)
If the header above contains a line with 'inDegrees', this indicates whether rotational values are in degrees (yes) or radians (no).

endheader
time	pelvis_tilt	pelvis_list	pelvis_rotation	pelvis_tx	pelvis_ty	pelvis_tz	hip_flexion_r	hip_adduction_r	hip_rotation_r	knee_angle_r	knee_angle_r_beta	ankle_angle_r	subtalar_angle_r	mtp_angle_r	hip_flexion_l	hip_adduction_l	hip_rotation_l	knee_angle_l	knee_angle_l_beta	ankle_angle_l	subtalar_angle_l	mtp_angle_l	L5_S1_Flex_Ext	L5_S1_Lat_Bending	L5_S1_axial_rotation	L4_L5_Flex_Ext	L4_L5_Lat_Bending	L4_L5_axial_rotation	L3_L4_Flex_Ext	L3_L4_Lat_Bending	L3_L4_axial_rotation	L2_L3_Flex_Ext	L2_L3_Lat_Bending	L2_L3_axial_rotation	L1_L2_Flex_Ext	L1_L2_Lat_Bending	L1_L2_axial_rotation	L1_T12_Flex_Ext	L1_T12_Lat_Bending	L1_T12_axial_rotation	Abs_r3	Abs_r2	Abs_r1	Abs_t1	Abs_t2	neck_flexion	neck_bending	neck_rotation	arm_flex_r	arm_add_r	arm_rot_r	elbow_flex_r	pro_sup_r	wrist_flex_r	wrist_dev_r	arm_flex_l	arm_add_l	arm_rot_l	elbow_flex_l	pro_sup_l	wrist_flex_l	wrist_dev_l
      0.00000000	      6.36346763	     -4.75509650	     91.60424135	      0.32643494	      1.02083365	      0.44680551	      3.41275507	      0.64831226	      4.64210814	      5.87877663	      0.10260401	     25.27473714	     -4.88140211	      0.00000000	      2.99414874	     -1.84875338	      7.94280057	      4.26407180	      0.07442209	     23.94787410	    -15.83132900	      0.00000000	      0.40225837	      0.40504510	     -0.15857229	      0.74703401	      0.53870998	     -0.16848306	      0.66087027	      0.98482665	     -0.16848306	      0.45974109	      0.98482665	     -0.13875076	      0.37353712	      0.82596796	     -0.12883999	      0.22985043	      0.62741485	     -0.11892922	      2.87329129	      4.58195113	     -0.88193152	      0.00000000	      0.00000000	     28.39111822	      1.84747121	     -3.43961498	     18.78359117	     -4.24513917	     78.03575672	     35.24280123	     88.54599941	    -14.45909326	      3.10085121	     20.68537707	     -1.29675155	     89.22920591	     27.58824279	     87.62181034	    -16.70807640	     -8.87642603
      0.01666667	      6.65273884	     -4.28983246	     91.60940687	      0.32646902	      1.02055391	      0.44505369	      2.65491524	      1.00825286	      6.44481256	      5.91055882	      0.10315871	     24.62287062	     -6.50951466	      0.00000000	      2.21098354	     -2.18805517	      8.26027200	      4.28506356	      0.07478847	     23.67707481	    -15.63948731	      0.00000000	      0.38425286	      0.44985678	     -0.21213140	      0.71359599	      0.59830952	     -0.22538962	      0.63128903	      1.09378178	     -0.22538962	      0.43916260	      1.09378178	     -0.18561498	      0.35681721	      0.91734795	     -0.17235676	      0.21956209	      0.69682815	     -0.15909855	      2.74467977	      5.08886988	     -1.17981122	      0.00000000	      0.00000000	     28.36634866	      1.90362280	     -2.69302980	     16.77123866	     -4.91668619	     72.85095025	     36.91161441	     87.94556924	    -13.89284960	      5.41023234	     20.20344562	     -1.40677610	     89.52282251	     28.38702553	     87.65328248	    -16.63671130	     -8.83015459
      0.03333333	      6.83241067	     -3.92446463	     91.55960544	      0.32668792	      1.02039500	      0.44322542	      2.08536343	      1.20156778	      7.00693445	      6.03566433	      0.10534222	     24.61490070	     -6.37448972	      0.00000000	      1.57070590	     -2.41114620	      8.31799667	      4.28553621	      0.07479672	     23.50741221	    -15.51381879	      0.00000000	      0.37549237	      0.47547816	     -0.28005225	      0.69732688	      0.63238595	     -0.29755551	      0.61689641	      1.15607760	     -0.29755551	      0.42915023	      1.15607760	     -0.24504572	      0.34868221	      0.96959506	     -0.22754245	      0.21455634	      0.73651567	     -0.21003919	      2.68210443	      5.37870405	     -1.55756659	      0.00000000	      0.00000000	     28.34376161	      1.78242906	     -2.54086277	     16.22127246	     -4.91380921	     72.49758873	     36.90611708	     87.53331026	    -14.04990028	      5.61584436	     19.68020218	     -1.48642994	     89.86437691	     28.76115790	     87.71393372	    -16.50530450	     -8.90425165
      0.05000000	      7.16300572	     -3.39794246	     91.25269086	      0.32705795	      1.02053436	      0.44055741	      1.14853423	      1.63527563	      8.78316128	      5.71096114	      0.09967508	     23.88608791	     -8.30877880	      0.00000000	      0.49103654	     -2.82079296	      8.39127991	      3.77449883	      0.06587743	     23.39054615	    -15.56670277	      0.00000000	      0.34546555	      0.52266841	     -0.18775846	      0.64156407	      0.69514899	     -0.19949336	      0.56756535	      1.27081598	     -0.19949336	      0.39483258	      1.27081598	     -0.16428865	      0.32079931	      1.06582543	     -0.15255375	      0.19739902	      0.80961337	     -0.14081884	      2.46762588	      5.91252962	     -1.04425623	      0.00000000	      0.00000000	     28.32568913	      1.40854135	     -2.47257939	     15.06805243	     -5.15728308	     70.08790908	     37.30262338	     86.81709960	    -12.72355715	      7.13959142	     19.43842518	     -1.03883427	     91.37111235	     28.65786150	     87.64735645	    -16.16576952	     -8.67812564
      0.06666667	      7.25557501	     -3.15782265	     91.25613025	      0.32687625	      1.02034630	      0.43796511	      0.64648627	      1.72038032	      8.99295614	      5.65687496	      0.09873109	     24.01367576	     -8.38907735	      0.00000000	     -0.03386043	     -2.91669396	      8.38404198	      3.62548793	      0.06327670	     23.51514286	    -15.56150742	      0.00000000	      0.35360373	      0.53926691	     -0.18026755	      0.65667749	      0.71722499	     -0.19153427	      0.58093557	      1.31117356	     -0.19153427	      0.40413370	      1.31117356	     -0.15773410	      0.32835642	      1.09967308	     -0.14646738	      0.20204917	      0.83532444	     -0.13520066	      2.52575608	      6.10029512	     -1.00259402	      0.00000000	      0.00000000	     28.31383424	      1.23158910	     -2.60929694	     14.70657868	     -5.10196626	     70.44514877	     36.88918702	     86.92310984	    -12.28734710	      7.22470587	     18.83792333	     -0.83374514	     91.72409918	     28.59748698	     87.70126459	    -16.01569410	     -8.63347567
      0.08333333	      7.45380566	     -2.64707526	     90.88919277	      0.32713650	      1.02076737	      0.43529633	     -0.27614994	      1.98248060	     10.93736160	      5.21873749	      0.09108415	     23.26201206	    -10.55073639	      0.00000000	     -1.07875614	     -3.15372055	      8.03389481	      3.00653794	      0.05247399	     23.46337490	    -15.50849312	      0.00000000	      0.30752970	      0.56583682	     -0.08835508	      0.57111341	      0.75256297	     -0.09387728	      0.50524055	      1.37577564	     -0.09387728	      0.35147569	      1.37577564	     -0.07731070	      0.28557208	      1.15385444	     -0.07178850	      0.17572247	      0.87648123	     -0.06626631	      2.19665390	      6.40085928	     -0.49140447	      0.00000000	      0.00000000	     28.30679909	      0.57966548	     -3.39224911	     14.97712535	     -5.02336627	     72.01822345	     36.11483405	     87.50758643	    -10.32263442	      7.00175160	     18.65215345	     -0.33569006	     93.20844795	     28.05040216	     87.56992295	    -15.77067682	     -8.76055739
      0.10000000	      7.56578479	     -2.33985899	     90.47641161	      0.32761581	      1.02098295	      0.43253931	     -0.85009244	      2.07649277	     11.04302374	      5.02217406	      0.08765347	     23.45280891	    -10.01032600	      0.00000000	     -1.82108944	     -3.27852672	      7.64857282	      2.54607768	      0.04443744	     23.60613060	    -15.56220778	      0.00000000	      0.28624039	      0.57986800	      0.00109050	      0.53157703	      0.77122444	      0.00115865	      0.47026434	      1.40989106	      0.00115865	      0.32714414	      1.40989106	      0.00095419	      0.26580283	      1.18246683	      0.00088603	      0.16355776	      0.89821553	      0.00081787	      2.04458648	      6.55958280	      0.00606502	      0.00000000	      0.00000000	     28.30674046	      0.28752720	     -3.83473271	     15.30872803	     -4.79946031	     74.38457574	     35.32991416	     87.88859420	     -9.52419244	      6.51289657	     18.32670838	     -0.02778565	     94.23200560	     27.73031029	     87.52714063	    -15.88314515	     -8.67718831
      0.11666667	      7.62355045	     -2.07055951	     90.31295936	      0.32799407	      1.02117399	      0.42969908	     -1.44454858	      2.16049296	     11.69056571	      4.72393061	      0.08244814	     23.30664115	    -10.70109728	      0.00000000	     -2.47229831	     -3.35454359	      7.56081312	      2.08841792	      0.03644977	     23.76145210	    -15.70471427	      0.00000000	      0.26546142	      0.58292900	      0.03599268	      0.49298841	      0.77529557	      0.03824222	      0.43612657	      1.41733357	      0.03824222	      0.30339586	      1.41733357	      0.03149359	      0.24650748	      1.18870882	      0.02924405	      0.15168466	      0.90295702	      0.02699451	      1.89616440	      6.59420944	      0.20018046	      0.00000000	      0.00000000	     28.30917644	      0.18646445	     -4.13271030	     15.48940109	     -4.49975168	     76.39344316	     34.67979440	     88.04763519	     -9.12134413	      5.78462421	     17.87142777	      0.04531746	     94.05070084	     27.55233072	     87.48107195	    -15.57070664	     -8.90507567
